<svg viewBox="-8.64 -8.64 53.28 53.28" xmlns="http://www.w3.org/2000/svg" xmlns:xlink="http://www.w3.org/1999/xlink" aria-hidden="true" role="img" class="iconify iconify--twemoji" preserveAspectRatio="xMidYMid meet" fill="" stroke="" transform="rotate(0)matrix(1, 0, 0, 1, 0, 0)"><g id="SVGRepo_bgCarrier" stroke-width="0" transform="translate(0,0), scale(1)"><path transform="translate(-8.64, -8.64), scale(3.33)" fill="#7ed0ec" d="M9.166.33a2.25 2.25 0 00-2.332 0l-5.25 3.182A2.25 2.25 0 00.5 5.436v5.128a2.25 2.25 0 001.084 1.924l5.25 3.182a2.25 2.25 0 002.332 0l5.25-3.182a2.25 2.25 0 001.084-1.924V5.436a2.25 2.25 0 00-1.084-1.924L9.166.33z" strokewidth="0"></path></g><g id="SVGRepo_tracerCarrier" stroke-linecap="round" stroke-linejoin="round" stroke="#CCCCCC" stroke-width="0.144"></g><g id="SVGRepo_iconCarrier"><path fill="#7ed0ec" d="M36 32a4 4 0 0 1-4 4H4a4 4 0 0 1-4-4V4a4 4 0 0 1 4-4h28a4 4 0 0 1 4 4v28z"></path><path fill="#112240" d="M8.917 10.117A2.903 2.903 0 0 1 8.7 8.97c0-1.302 1.147-2.232 2.387-2.232c1.055 0 1.706.682 2.108 1.519l4.806 12.898l4.807-12.898c.402-.837 1.053-1.519 2.107-1.519c1.24 0 2.387.93 2.387 2.232c0 .434-.06.744-.217 1.147l-6.789 17.271c-.404.992-.931 1.798-2.295 1.798c-1.364 0-1.891-.806-2.295-1.798L8.917 10.117z"></path></g></svg>