<svg fill="#000000" viewBox="0 0 16 16" xmlns="http://www.w3.org/2000/svg"><g id="SVGRepo_bgCarrier" stroke-width="0"></g><g id="SVGRepo_tracerCarrier" stroke-linecap="round" stroke-linejoin="round"></g><g id="SVGRepo_iconCarrier"><path d="M13.13 4.13 9.37.37A1.26 1.26 0 0 0 8.48 0H3.75A1.25 1.25 0 0 0 2.5 1.25v13.5A1.25 1.25 0 0 0 3.75 16h8.5a1.25 1.25 0 0 0 1.25-1.25V5a1.26 1.26 0 0 0-.37-.87zm-.88 10.62h-8.5V1.25h3.48V5a1.25 1.25 0 0 0 1.25 1.27h3.77zm0-9.73H8.48V1.25L12.25 5z"></path></g></svg>